<svg style="position: absolute; width: 0; height: 0; overflow: hidden;" version="1.1" xmlns="http://www.w3.org/2000/svg" xmlns:xlink="http://www.w3.org/1999/xlink">
<defs>
<symbol id="icon-facebook2" viewBox="0 0 16 28">
<title>facebook2</title>
<path class="path1" d="M14.984 0.187v4.125h-2.453c-1.922 0-2.281 0.922-2.281 2.25v2.953h4.578l-0.609 4.625h-3.969v11.859h-4.781v-11.859h-3.984v-4.625h3.984v-3.406c0-3.953 2.422-6.109 5.953-6.109 1.687 0 3.141 0.125 3.563 0.187z"></path>
</symbol>
<symbol id="icon-google" viewBox="0 0 20 20">
<title>google</title>
<path class="path1" d="M1.989 5.589c0 1.494 0.499 2.572 1.482 3.205 0.806 0.52 1.74 0.598 2.226 0.598 0.118 0 0.213-0.006 0.279-0.010 0 0-0.154 1.004 0.59 1.996h-0.034c-1.289 0-5.493 0.269-5.493 3.727 0 3.516 3.861 3.695 4.636 3.695 0.061 0 0.097-0.002 0.097-0.002 0.008 0 0.063 0.002 0.158 0.002 0.497 0 1.782-0.062 2.975-0.643 1.548-0.75 2.333-2.059 2.333-3.885 0-1.764-1.196-2.814-2.069-3.582-0.533-0.469-0.994-0.873-0.994-1.266 0-0.4 0.337-0.701 0.762-1.082 0.689-0.615 1.339-1.492 1.339-3.15 0-1.457-0.189-2.436-1.354-3.057 0.121-0.062 0.551-0.107 0.763-0.137 0.631-0.086 1.554-0.184 1.554-0.699v-0.099h-4.599c-0.046 0.002-4.651 0.172-4.651 4.389zM9.413 14.602c0.088 1.406-1.115 2.443-2.922 2.574-1.835 0.135-3.345-0.691-3.433-2.096-0.043-0.676 0.254-1.336 0.835-1.863 0.589-0.533 1.398-0.863 2.278-0.928 0.104-0.006 0.207-0.012 0.31-0.012 1.699 0.001 2.849 0.999 2.932 2.325zM8.212 4.626c0.451 1.588-0.23 3.246-1.316 3.553-0.125 0.035-0.253 0.052-0.384 0.052-0.994 0-1.979-1.006-2.345-2.393-0.204-0.776-0.187-1.458 0.047-2.112 0.229-0.645 0.643-1.078 1.163-1.225 0.125-0.035 0.254-0.053 0.385-0.053 1.2 0 1.972 0.498 2.45 2.178zM16 8v-3h-2v3h-3v2h3v3h2v-3h3v-2h-3z"></path>
</symbol>
<symbol id="icon-instagram2" viewBox="0 0 20 20">
<title>instagram2</title>
<path class="path1" d="M17 1h-14c-1.1 0-2 0.9-2 2v14c0 1.101 0.9 2 2 2h14c1.1 0 2-0.899 2-2v-14c0-1.1-0.9-2-2-2zM9.984 15.523c3.059 0 5.538-2.481 5.538-5.539 0-0.338-0.043-0.664-0.103-0.984h1.581v7.216c0 0.382-0.31 0.69-0.693 0.69h-12.614c-0.383 0-0.693-0.308-0.693-0.69v-7.216h1.549c-0.061 0.32-0.104 0.646-0.104 0.984 0 3.059 2.481 5.539 5.539 5.539zM6.523 9.984c0-1.912 1.55-3.461 3.462-3.461s3.462 1.549 3.462 3.461-1.551 3.462-3.462 3.462c-1.913 0-3.462-1.55-3.462-3.462zM16.307 6h-1.615c-0.382 0-0.692-0.312-0.692-0.692v-1.617c0-0.382 0.31-0.691 0.691-0.691h1.615c0.384 0 0.694 0.309 0.694 0.691v1.616c0 0.381-0.31 0.693-0.693 0.693z"></path>
</symbol>
<symbol id="icon-twitter2" viewBox="0 0 16 16">
<title>twitter2</title>
<path class="path1" d="M16 3.538c-0.588 0.263-1.222 0.438-1.884 0.516 0.678-0.406 1.197-1.050 1.444-1.816-0.634 0.375-1.338 0.65-2.084 0.797-0.6-0.638-1.453-1.034-2.397-1.034-1.813 0-3.281 1.469-3.281 3.281 0 0.256 0.028 0.506 0.084 0.747-2.728-0.138-5.147-1.444-6.766-3.431-0.281 0.484-0.444 1.050-0.444 1.65 0 1.138 0.578 2.144 1.459 2.731-0.538-0.016-1.044-0.166-1.488-0.409 0 0.013 0 0.028 0 0.041 0 1.591 1.131 2.919 2.634 3.219-0.275 0.075-0.566 0.116-0.866 0.116-0.212 0-0.416-0.022-0.619-0.059 0.419 1.303 1.631 2.253 3.066 2.281-1.125 0.881-2.538 1.406-4.078 1.406-0.266 0-0.525-0.016-0.784-0.047 1.456 0.934 3.181 1.475 5.034 1.475 6.037 0 9.341-5.003 9.341-9.341 0-0.144-0.003-0.284-0.009-0.425 0.641-0.459 1.197-1.038 1.637-1.697z"></path>
</symbol>
<symbol id="icon-tumblr" viewBox="0 0 16 16">
<title>tumblr</title>
<path class="path1" d="M9.001 7l-0 3.659c0 0.928-0.012 1.463 0.086 1.727 0.098 0.262 0.342 0.534 0.609 0.691 0.354 0.212 0.758 0.318 1.214 0.318 0.81 0 1.289-0.107 2.090-0.633v2.405c-0.683 0.321-1.279 0.509-1.833 0.639-0.555 0.129-1.154 0.194-1.798 0.194-0.732 0-1.163-0.092-1.725-0.276-0.562-0.185-1.042-0.45-1.438-0.79-0.398-0.343-0.672-0.706-0.826-1.091s-0.23-0.944-0.23-1.676v-5.611h-2.147v-2.266c0.628-0.204 1.331-0.497 1.778-0.877 0.449-0.382 0.809-0.839 1.080-1.374 0.272-0.534 0.459-1.214 0.561-2.039h2.579l-0 4h3.999v3h-3.999z"></path>
</symbol>
<symbol id="icon-linkedin2" viewBox="0 0 16 16">
<title>linkedin2</title>
<path class="path1" d="M6 6h2.767v1.418h0.040c0.385-0.691 1.327-1.418 2.732-1.418 2.921 0 3.461 1.818 3.461 4.183v4.817h-2.885v-4.27c0-1.018-0.021-2.329-1.5-2.329-1.502 0-1.732 1.109-1.732 2.255v4.344h-2.883v-9z"></path>
<path class="path2" d="M1 6h3v9h-3v-9z"></path>
<path class="path3" d="M4 3.5c0 0.828-0.672 1.5-1.5 1.5s-1.5-0.672-1.5-1.5c0-0.828 0.672-1.5 1.5-1.5s1.5 0.672 1.5 1.5z"></path>
</symbol>
</defs>
</svg>
